<svg xmlns="http://www.w3.org/2000/svg" width="144" height="32" viewBox="0 0 144 32" fill="none"><g clip-path="url(#clip0_4_131)"><path d="M10.7985 27.4597H9.35851V26.9404H12.8634V27.4597H11.4174V31.674H10.7985V27.4597Z" fill="white" class="logo__item logo__item--black" style="fill: rgb(255, 255, 255);"></path> <path d="M13.8778 26.9404V28.9208H16.1691V26.9404H16.7879V31.674H16.1691V29.4551H13.8778V31.674H13.2679V26.9404H13.8778Z" fill="white" class="logo__item logo__item--black" style="fill: rgb(255, 255, 255);"></path> <path d="M20.1721 29.4551H18.3306V31.1637H20.3804V31.6769H17.7178V26.9434H20.2747V27.4566H18.3276V28.9539H20.1691V29.4581L20.1721 29.4551Z" fill="white" class="logo__item logo__item--black" style="fill: rgb(255, 255, 255);"></path> <path d="M23.1759 30.1857L22.6838 31.674H22.0528L23.6619 26.9404H24.3985L26.0136 31.674H25.3615L24.8544 30.1857H23.1759ZM24.7276 29.7087L24.2627 28.3472C24.157 28.0393 24.0876 27.7585 24.0181 27.4838H24.003C23.9336 27.7646 23.8551 28.0514 23.7645 28.3412L23.2996 29.7118H24.7245L24.7276 29.7087Z" fill="white" class="logo__item logo__item--black" style="fill: rgb(255, 255, 255);"></path> <path d="M26.9978 26.9405V29.742C26.9978 30.8016 27.4687 31.2515 28.0996 31.2515C28.803 31.2515 29.2528 30.7866 29.2528 29.742V26.9405H29.8717V29.6998C29.8717 31.1549 29.1049 31.7496 28.0815 31.7496C27.1125 31.7496 26.3819 31.1941 26.3819 29.7269V26.9375H27.0008L26.9978 26.9405Z" fill="white" class="logo__item logo__item--black" style="fill: rgb(255, 255, 255);"></path> <path d="M31.7042 27.4597H30.2642V26.9404H33.7691V27.4597H32.323V31.674H31.7042V27.4597Z" fill="white" class="logo__item logo__item--black" style="fill: rgb(255, 255, 255);"></path> <path d="M38.0287 29.2588C38.0287 30.889 37.0385 31.7524 35.831 31.7524C34.6234 31.7524 33.7027 30.7833 33.7027 29.3494C33.7027 27.846 34.6355 26.8618 35.9004 26.8618C37.1653 26.8618 38.0287 27.852 38.0287 29.2558V29.2588ZM34.3547 29.3373C34.3547 30.3486 34.9012 31.2543 35.8642 31.2543C36.8272 31.2543 37.3827 30.3607 37.3827 29.286C37.3827 28.3441 36.8906 27.3599 35.8732 27.3599C34.8559 27.3599 34.3547 28.2928 34.3547 29.3343V29.3373Z" fill="white" class="logo__item logo__item--black" style="fill: rgb(255, 255, 255);"></path> <path d="M42.6868 29.5941C42.6506 28.933 42.6083 28.139 42.6174 27.5503H42.5962C42.4332 28.1058 42.237 28.6945 41.9985 29.3496L41.1623 31.6469H40.6974L39.9306 29.3918C39.7072 28.7247 39.517 28.1118 39.3842 27.5503H39.3691C39.354 28.139 39.3208 28.933 39.2785 29.6424L39.1517 31.6711H38.5691L38.8981 26.9375H39.677L40.4861 29.2288C40.6823 29.8115 40.8453 30.3307 40.963 30.8228H40.9842C41.1049 30.3458 41.271 29.8266 41.4823 29.2288L42.3245 26.9375H43.1034L43.3993 31.6711H42.8015L42.6808 29.5911L42.6868 29.5941Z" fill="white" class="logo__item logo__item--black" style="fill: rgb(255, 255, 255);"></path> <path d="M48.2627 29.2588C48.2627 30.889 47.2725 31.7524 46.0649 31.7524C44.8574 31.7524 43.9366 30.7833 43.9366 29.3494C43.9366 27.846 44.8695 26.8618 46.1344 26.8618C47.3993 26.8618 48.2627 27.852 48.2627 29.2558V29.2588ZM44.5887 29.3373C44.5887 30.3486 45.1351 31.2543 46.0981 31.2543C47.0611 31.2543 47.6166 30.3607 47.6166 29.286C47.6166 28.3441 47.1245 27.3599 46.1072 27.3599C45.0898 27.3599 44.5887 28.2928 44.5887 29.3343V29.3373Z" fill="white" class="logo__item logo__item--black" style="fill: rgb(255, 255, 255);"></path> <path d="M49.6544 27.4597H48.2144V26.9404H51.7193V27.4597H50.2732V31.674H49.6544V27.4597Z" fill="white" class="logo__item logo__item--black" style="fill: rgb(255, 255, 255);"></path> <path d="M52.7306 26.9404V31.674H52.1208V26.9404H52.7306Z" fill="white" class="logo__item logo__item--black" style="fill: rgb(255, 255, 255);"></path> <path d="M54.711 31.674L53.1653 26.9404H53.8264L54.563 29.274C54.7653 29.914 54.9434 30.4906 55.0702 31.0431H55.0853C55.2181 30.4967 55.4144 29.8989 55.6257 29.2801L56.4257 26.9404H57.0778L55.3842 31.674H54.711Z" fill="white" class="logo__item logo__item--black" style="fill: rgb(255, 255, 255);"></path> <path d="M59.9185 29.4551H58.077V31.1637H60.1268V31.6769H57.4642V26.9434H60.0212V27.4566H58.074V28.9539H59.9155V29.4581L59.9185 29.4551Z" fill="white" class="logo__item logo__item--black" style="fill: rgb(255, 255, 255);"></path> <path d="M62.9223 30.1857L62.4302 31.674H61.7993L63.4083 26.9404H64.1449L65.76 31.674H65.1079L64.6008 30.1857H62.9223ZM64.474 29.7087L64.0091 28.3472C63.9034 28.0393 63.834 27.7585 63.7645 27.4838H63.7495C63.68 27.7646 63.6015 28.0514 63.511 28.3412L63.0461 29.7118H64.471L64.474 29.7087Z" fill="white" class="logo__item logo__item--black" style="fill: rgb(255, 255, 255);"></path> <path d="M66.3306 26.9404H68.8815V27.4536H66.9434V29.0265H68.7336V29.5306H66.9434V31.674H66.3336V26.9404H66.3306Z" fill="white" class="logo__item logo__item--black" style="fill: rgb(255, 255, 255);"></path> <path d="M70.5238 27.4597H69.0838V26.9404H72.5887V27.4597H71.1427V31.674H70.5238V27.4597Z" fill="white" class="logo__item logo__item--black" style="fill: rgb(255, 255, 255);"></path> <path d="M75.4415 29.4551H73.6V31.1637H75.6498V31.6769H72.9872V26.9434H75.5442V27.4566H73.597V28.9539H75.4385V29.4581L75.4415 29.4551Z" fill="white" class="logo__item logo__item--black" style="fill: rgb(255, 255, 255);"></path> <path d="M76.32 27.0039C76.628 26.9405 77.0717 26.9043 77.4944 26.9043C78.1464 26.9043 78.5691 27.0251 78.8649 27.2907C79.1034 27.502 79.2362 27.825 79.2362 28.1903C79.2362 28.8152 78.8438 29.2288 78.3427 29.3979V29.419C78.7079 29.5458 78.9253 29.8839 79.037 30.376C79.191 31.0371 79.3027 31.493 79.4023 31.6741H78.7713C78.6929 31.5413 78.5902 31.1337 78.4544 30.542C78.3125 29.89 78.0619 29.6424 77.5064 29.6213H76.9298V31.6711H76.32V27.0009V27.0039ZM76.9298 29.1594H77.5547C78.2068 29.1594 78.6234 28.8001 78.6234 28.2598C78.6234 27.6469 78.1796 27.3813 77.5336 27.3752C77.2378 27.3752 77.0264 27.4024 76.9298 27.4326V29.1594Z" fill="white" class="logo__item logo__item--black" style="fill: rgb(255, 255, 255);"></path> <path d="M83.9638 29.5941C83.9276 28.933 83.8853 28.139 83.8944 27.5503H83.8732C83.7102 28.1058 83.514 28.6945 83.2755 29.3496L82.4393 31.6469H81.9744L81.2076 29.3918C80.9842 28.7247 80.794 28.1118 80.6612 27.5503H80.6461C80.631 28.139 80.5978 28.933 80.5555 29.6424L80.4287 31.6711H79.8461L80.1751 26.9375H80.954L81.763 29.2288C81.9593 29.8115 82.1223 30.3307 82.24 30.8228H82.2612C82.3819 30.3458 82.5479 29.8266 82.7593 29.2288L83.6015 26.9375H84.3804L84.6763 31.6711H84.0785L83.9578 29.5911L83.9638 29.5941Z" fill="white" class="logo__item logo__item--black" style="fill: rgb(255, 255, 255);"></path> <path d="M86.1887 30.1857L85.6966 31.674H85.0657L86.6747 26.9404H87.4113L89.0264 31.674H88.3744L87.8672 30.1857H86.1887ZM87.7404 29.7087L87.2755 28.3472C87.1698 28.0393 87.1004 27.7585 87.031 27.4838H87.0159C86.9464 27.7646 86.8679 28.0514 86.7774 28.3412L86.3125 29.7118H87.7374L87.7404 29.7087Z" fill="white" class="logo__item logo__item--black" style="fill: rgb(255, 255, 255);"></path> <path d="M89.597 27.0039C89.9049 26.9405 90.3487 26.9043 90.7713 26.9043C91.4234 26.9043 91.8461 27.0251 92.1419 27.2907C92.3804 27.502 92.5132 27.825 92.5132 28.1903C92.5132 28.8152 92.1208 29.2288 91.6196 29.3979V29.419C91.9849 29.5458 92.2023 29.8839 92.314 30.376C92.4679 31.0371 92.5796 31.493 92.6793 31.6741H92.0483C91.9698 31.5413 91.8642 31.1337 91.7313 30.542C91.5895 29.89 91.3389 29.6424 90.7834 29.6213H90.2068V31.6711H89.597V27.0009V27.0039ZM90.2068 29.1594H90.8317C91.4838 29.1594 91.9004 28.8001 91.9004 28.2598C91.9004 27.6469 91.4566 27.3813 90.8106 27.3752C90.5147 27.3752 90.3064 27.4024 90.2068 27.4326V29.1594Z" fill="white" class="logo__item logo__item--black" style="fill: rgb(255, 255, 255);"></path> <path d="M93.2498 26.9405H93.8596V29.2228H93.8808C94.0076 29.0386 94.1344 28.8726 94.2521 28.7156L95.6981 26.9375H96.4559L94.7412 28.9481L96.5887 31.6741H95.8642L94.3034 29.3496L93.8536 29.8688V31.6741H93.2438V26.9405H93.2498Z" fill="white" class="logo__item logo__item--black" style="fill: rgb(255, 255, 255);"></path> <path d="M99.3811 29.4551H97.5396V31.1637H99.5895V31.6769H96.9268V26.9434H99.4838V27.4566H97.5366V28.9539H99.3781V29.4581L99.3811 29.4551Z" fill="white" class="logo__item logo__item--black" style="fill: rgb(255, 255, 255);"></path> <path d="M101.271 27.4597H99.831V26.9404H103.336V27.4597H101.89V31.674H101.271V27.4597Z" fill="white" class="logo__item logo__item--black" style="fill: rgb(255, 255, 255);"></path> <path d="M108.411 31.5199C108.184 31.6316 107.737 31.7433 107.161 31.7433C105.826 31.7433 104.821 30.9011 104.821 29.3494C104.821 27.7977 105.826 26.8618 107.294 26.8618C107.885 26.8618 108.257 26.9886 108.417 27.0731L108.269 27.5712C108.036 27.4596 107.707 27.375 107.315 27.375C106.204 27.375 105.467 28.0845 105.467 29.3282C105.467 30.4875 106.134 31.2331 107.288 31.2331C107.659 31.2331 108.039 31.1546 108.284 31.0369L108.411 31.5229V31.5199Z" fill="white" class="logo__item logo__item--black" style="fill: rgb(255, 255, 255);"></path> <path d="M112.948 29.2588C112.948 30.889 111.958 31.7524 110.75 31.7524C109.543 31.7524 108.622 30.7833 108.622 29.3494C108.622 27.846 109.555 26.8618 110.82 26.8618C112.085 26.8618 112.948 27.852 112.948 29.2558V29.2588ZM109.274 29.3373C109.274 30.3486 109.82 31.2543 110.783 31.2543C111.746 31.2543 112.302 30.3607 112.302 29.286C112.302 28.3441 111.81 27.3599 110.792 27.3599C109.775 27.3599 109.274 28.2928 109.274 29.3343V29.3373Z" fill="white" class="logo__item logo__item--black" style="fill: rgb(255, 255, 255);"></path> <path d="M117.606 29.5941C117.57 28.933 117.528 28.139 117.537 27.5503H117.515C117.352 28.1058 117.156 28.6945 116.918 29.3496L116.082 31.6469H115.617L114.85 29.3918C114.623 28.7247 114.436 28.1118 114.3 27.5503H114.285C114.27 28.139 114.237 28.933 114.195 29.6424L114.068 31.6711H113.485L113.814 26.9375H114.593L115.402 29.2288C115.599 29.8115 115.762 30.3307 115.879 30.8228H115.9C116.021 30.3458 116.187 29.8266 116.399 29.2288L117.241 26.9375H118.02L118.315 31.6711H117.718L117.597 29.5911L117.606 29.5941Z" fill="white" class="logo__item logo__item--black" style="fill: rgb(255, 255, 255);"></path> <path d="M119.137 26.9949C119.432 26.9466 119.819 26.9043 120.311 26.9043C120.915 26.9043 121.359 27.0432 121.639 27.2967C121.899 27.5232 122.053 27.8643 122.053 28.2869C122.053 28.7096 121.926 29.0537 121.688 29.2983C121.365 29.6424 120.836 29.8175 120.242 29.8175C120.057 29.8175 119.891 29.8115 119.749 29.7752V31.6711H119.14V26.9918L119.137 26.9949ZM119.746 29.2771C119.879 29.3134 120.048 29.3254 120.254 29.3254C120.99 29.3254 121.44 28.9662 121.44 28.3141C121.44 27.662 120.996 27.3873 120.323 27.3873C120.057 27.3873 119.852 27.4084 119.746 27.4356V29.2771Z" fill="white" class="logo__item logo__item--black" style="fill: rgb(255, 255, 255);"></path> <path d="M122.922 30.1857L122.43 31.674H121.799L123.408 26.9404H124.145L125.76 31.674H125.108L124.601 30.1857H122.922ZM124.474 29.7087L124.009 28.3472C123.903 28.0393 123.834 27.7585 123.765 27.4838H123.749C123.68 27.7646 123.602 28.0514 123.511 28.3412L123.046 29.7118H124.471L124.474 29.7087Z" fill="white" class="logo__item logo__item--black" style="fill: rgb(255, 255, 255);"></path> <path d="M126.331 31.674V26.9404H126.998L128.516 29.3344C128.866 29.8899 129.141 30.388 129.368 30.874L129.383 30.868C129.325 30.237 129.313 29.6604 129.313 28.9208V26.9404H129.89V31.674H129.271L127.768 29.271C127.439 28.7427 127.122 28.2023 126.883 27.6891L126.862 27.6951C126.898 28.2929 126.91 28.8604 126.91 29.6484V31.671H126.334L126.331 31.674Z" fill="white" class="logo__item logo__item--black" style="fill: rgb(255, 255, 255);"></path> <path d="M131.831 31.6741V29.6635L130.334 26.9375H131.028L131.695 28.2447C131.879 28.6039 132.018 28.8907 132.166 29.2198H132.181C132.314 28.9118 132.477 28.6009 132.658 28.2447L133.34 26.9375H134.035L132.447 29.6545V31.6711H131.828L131.831 31.6741Z" fill="white" class="logo__item logo__item--black" style="fill: rgb(255, 255, 255);"></path> <path d="M0 0H6.2124L11.0977 7.83881C12.4943 10.091 13.888 12.7573 14.937 15.1667H15.0428C14.6951 12.3432 14.5893 9.45615 14.5893 6.2517V0H19.4746V21.3852H13.891L8.86363 13.1352C7.46697 10.8498 5.93126 8.08973 4.77947 5.5836L4.67366 5.61686C4.81272 8.4404 4.88225 11.4544 4.88225 14.946V21.3882H0V0Z" fill="white" class="logo__item logo__item--black" style="fill: rgb(255, 255, 255);"></path> <path d="M23.6615 18.8458C23.6615 17.165 24.9524 15.9588 26.8025 15.9588C28.6526 15.9588 29.8739 17.165 29.9102 18.8458C29.9102 20.4964 28.6889 21.7358 26.8025 21.7358C24.9161 21.7358 23.6615 20.4964 23.6615 18.8458ZM24.8133 14.3747L24.0122 0H29.5595L28.7917 14.3747H24.8133Z" fill="#F39200" class="logo__item logo__item--orange" style="fill: rgb(243, 146, 0);"></path> <path d="M49.8113 0.362314H54.9877L62.9942 16.0754H63.0536V0.362314H67.0866V21.3735H61.9399L53.9037 5.66041H53.8443V21.3735H49.8113V0.362314Z" fill="white" class="logo__item logo__item--black" style="fill: rgb(255, 255, 255);"></path> <path d="M71.758 0.362314H84.1628V3.67362H75.9781V8.85293H83.4709V12.1642H75.9781V18.0622H84.2252V21.3735H71.761V0.362314H71.758Z" fill="white" class="logo__item logo__item--black" style="fill: rgb(255, 255, 255);"></path> <path d="M93.2533 10.4477L86.993 0.362314H91.8694L96.2647 7.85805L100.749 0.362314H105.266L98.9464 10.4477L105.839 21.3735H100.874L96.0271 13.1858L91.121 21.3735H86.3634L93.2593 10.4477H93.2533Z" fill="white" class="logo__item logo__item--black" style="fill: rgb(255, 255, 255);"></path> <path d="M108.426 0.362314H112.64V12.4939C112.64 16.0754 113.783 18.4245 117.003 18.4245C120.222 18.4245 121.368 16.0754 121.368 12.4939V0.362314H125.582V13.7887C125.582 19.4194 122.393 21.7358 117.006 21.7358C111.618 21.7358 108.426 19.4194 108.426 13.7887V0.362314Z" fill="white" class="logo__item logo__item--black" style="fill: rgb(255, 255, 255);"></path> <path d="M141.601 4.21709C140.277 3.64689 138.801 3.31428 137.325 3.31428C135.849 3.31428 134.014 3.94684 134.014 6.23358C134.014 9.8775 143.226 8.34212 143.226 15.3835C143.226 19.9896 139.582 21.7358 135.338 21.7358C133.048 21.7358 132.027 21.4359 129.951 20.9251L130.343 17.1297C131.786 17.9137 133.443 18.4245 135.098 18.4245C136.752 18.4245 138.831 17.6108 138.831 15.7131C138.831 11.7099 129.621 13.364 129.621 6.41176C129.621 1.71653 133.262 0 136.966 0C138.771 0 140.458 0.240552 141.993 0.751355L141.601 4.21115V4.21709Z" fill="white" class="logo__item logo__item--black" style="fill: rgb(255, 255, 255);"></path> <path d="M41.0566 0H38.6415V21.7359H41.0566V0Z" fill="white" class="logo__item logo__item--black" style="fill: rgb(255, 255, 255);"></path></g> <defs><clipPath id="clip0_4_131"><rect width="143.396" height="32" fill="white"></rect></clipPath></defs></svg>